<svg xmlns="http://www.w3.org/2000/svg" width="13.105" height="13.104" viewBox="0 0 13.105 13.104"><g transform="translate(0 -0.36)"><path d="M12.769,10.966,2.5.7A1.146,1.146,0,0,0,.878.7l-.541.54a1.146,1.146,0,0,0,0,1.621l10.27,10.27a1.146,1.146,0,0,0,1.621,0l.54-.54a1.145,1.145,0,0,0,0-1.621Zm0,0" transform="translate(0)" fill="#e8e8e8"/><path d="M10.606.7.336,10.968a1.146,1.146,0,0,0,0,1.621l.54.54a1.146,1.146,0,0,0,1.621,0L12.769,2.86a1.146,1.146,0,0,0,0-1.621L12.228.7a1.146,1.146,0,0,0-1.622,0Zm0,0" transform="translate(0 -0.002)" fill="#fff"/></g></svg>