<svg xmlns="http://www.w3.org/2000/svg" width="8.967" height="11.041" viewBox="0 0 8.967 11.041"><g transform="translate(0.003 0.002)"><path d="M222.657,154.7a.259.259,0,0,0-.259.259v4.887a.259.259,0,0,0,.517,0v-4.887A.259.259,0,0,0,222.657,154.7Zm0,0" transform="translate(-216.651 -150.704)" fill="#e44c4c"/><path d="M104.657,154.7a.259.259,0,0,0-.259.259v4.887a.259.259,0,1,0,.517,0v-4.887A.259.259,0,0,0,104.657,154.7Zm0,0" transform="translate(-101.702 -150.704)" fill="#e44c4c"/><path d="M.731,3.286V9.656a1.427,1.427,0,0,0,.379.984,1.273,1.273,0,0,0,.924.4H6.927a1.273,1.273,0,0,0,.924-.4,1.427,1.427,0,0,0,.379-.984V3.286a.988.988,0,0,0-.253-1.942H6.652V1.02A1.016,1.016,0,0,0,5.628,0h-2.3A1.016,1.016,0,0,0,2.308,1.02v.323H.985A.988.988,0,0,0,.731,3.286Zm6.2,7.237H2.034a.819.819,0,0,1-.786-.866V3.308H7.713V9.656a.819.819,0,0,1-.786.866Zm-4.1-9.5a.5.5,0,0,1,.507-.5h2.3a.5.5,0,0,1,.507.5v.323H2.826ZM.985,1.86H7.976a.465.465,0,1,1,0,.931H.985a.465.465,0,1,1,0-.931Zm0,0" transform="translate(0 0)" fill="#e44c4c"/><path d="M163.657,154.7a.259.259,0,0,0-.259.259v4.887a.259.259,0,0,0,.517,0v-4.887A.259.259,0,0,0,163.657,154.7Zm0,0" transform="translate(-159.176 -150.704)" fill="#e44c4c"/></g></svg>