<svg id="download" xmlns="http://www.w3.org/2000/svg" width="25" height="25" viewBox="0 0 25 25">
  <path id="Path_5" data-name="Path 5" d="M18.638,2.482a5.778,5.778,0,0,0-1.556.212A7.1,7.1,0,0,0,11.57,0a6.92,6.92,0,0,0-4,1.282A7.924,7.924,0,0,0,5.1,4.163,5.412,5.412,0,0,0,1.614,5.971a6.478,6.478,0,0,0-.184,8.34,5.484,5.484,0,0,0,3.558,2.008.71.71,0,0,0,.073.005l.846.018v5A3.666,3.666,0,0,0,9.57,25H15.43a3.666,3.666,0,0,0,3.662-3.662V19.088a1.463,1.463,0,0,0,.486-.456l2.072-3.107a6.68,6.68,0,0,0,2.379-2.431A7.364,7.364,0,0,0,25,9.42c0-3.826-2.854-6.938-6.362-6.938ZM15.43,23.535H9.57a2.2,2.2,0,0,1-2.2-2.2V12.3a2.2,2.2,0,0,1,2.2-2.2H15.43a2.187,2.187,0,0,1,.635.093v2.348h-.243A1.465,1.465,0,0,0,14.6,14.826l.439.659,0,.007,2.094,3.141a1.462,1.462,0,0,0,.486.456v2.249a2.2,2.2,0,0,1-2.2,2.2Zm2.93-5.715-2.537-3.807H16.8a.732.732,0,0,0,.732-.732V8.154h1.66v5.127a.732.732,0,0,0,.732.732H20.9l-.377.566h0Zm3.777-4.588a1.462,1.462,0,0,0-1.239-.683h-.243V8.154a1.467,1.467,0,0,0-1.465-1.465h-1.66a1.467,1.467,0,0,0-1.465,1.465V8.7a3.667,3.667,0,0,0-.635-.056H9.57A3.666,3.666,0,0,0,5.908,12.3v2.572l-.776-.017a4.546,4.546,0,0,1-3.668-4.613A4.889,4.889,0,0,1,2.7,6.953,3.924,3.924,0,0,1,5.578,5.6a.733.733,0,0,0,.661-.434,5.908,5.908,0,0,1,5.331-3.7,5.718,5.718,0,0,1,4.651,2.513.732.732,0,0,0,.859.258,4.327,4.327,0,0,1,1.558-.29,5.215,5.215,0,0,1,4.9,5.473,5.846,5.846,0,0,1-1.4,3.812Z" transform="translate(0 0)" fill="#fff"/>
  <path id="Path_6" data-name="Path 6" d="M191.2,393h-5.469a.732.732,0,0,0,0,1.465H191.2a.732.732,0,0,0,0-1.465Z" transform="translate(-175.967 -373.811)" fill="#fff"/>
  <path id="Path_7" data-name="Path 7" d="M185.732,330.465H186.9a.732.732,0,0,0,0-1.465h-1.172a.732.732,0,0,0,0,1.465Z" transform="translate(-175.967 -312.936)" fill="#fff"/>
  <path id="Path_8" data-name="Path 8" d="M185.732,266.465H186.9a.732.732,0,0,0,0-1.465h-1.172a.732.732,0,0,0,0,1.465Z" transform="translate(-175.967 -252.061)" fill="#fff"/>
</svg>
