<svg xmlns="http://www.w3.org/2000/svg" width="171.34" height="329.781" viewBox="0 0 171.34 329.781"><path d="M316.51,357.8l20.327,20.327v61.5H268.3V420.21h48.081Z" transform="translate(-165.497 -109.845)" fill="#fff"/><path d="M209.727,357.8,189.4,378.127v61.5h68.665V420.21h-48.21Z" transform="translate(-189.4 -109.845)" fill="#fff"/><rect width="45.606" height="17.851" transform="translate(88.83 177.649) rotate(-45)" fill="#fff"/><path d="M247.266,318.8,227.2,338.866v25.29l32.706-32.706Z" transform="translate(-177.947 -121.659)" fill="#fff"/><rect width="17.851" height="11.596" transform="translate(37.177 158.142) rotate(-45)" fill="#f1f1f1"/><path d="M252.207,300.9,239.7,313.539l56.026,56.026V344.291Z" transform="translate(-174.16 -127.084)" fill="#fff"/><rect width="18.634" height="17.851" transform="translate(95.599 170.891) rotate(-45)" fill="#fff"/><path d="M288.261,300.8,275.1,313.961l14.461,14.593V431.361h17.851V320.076Z" transform="translate(-163.433 -127.112)" fill="#fff"/><path d="M270.255,305.839,300.493,275.6h0V202.654L282.641,184.8V267.15L257.1,292.689Z" transform="translate(-168.88 -162.252)" fill="#fff"/><path d="M251.676,283,209.2,325.476V436.75h17.851V333.942l37.8-37.8Z" transform="translate(-183.4 -132.508)" fill="#fff"/><path d="M251.261,263.9,238.1,277.061l28.665,28.665,13.161-13.161Z" transform="translate(-174.643 -138.294)" fill="#fff"/><path d="M237.723,268.048,236.552,267V185.7L218.7,203.551v71.8h0l5.862,5.862Z" transform="translate(-180.521 -161.986)" fill="#fff"/><path d="M289.239,263.9,276.6,276.539l19.805,19.805V271.081Z" transform="translate(-162.979 -138.294)" fill="#f1f1f1"/><path d="M258.122,248.283l-.522.522,12.639,12.639,5.341-5.341V185.351L258.122,167.5Z" transform="translate(-168.736 -167.5)" fill="#fff"/><path d="M272.638,264.831l-16.287-16.287V167.5L238.5,185.351v70.62l8.859,8.86h-.132l12.639,12.639h0l8.338,8.209,12.639-12.507-8.338-8.338Z" transform="translate(-174.521 -167.5)" fill="#fff"/><path d="M218,276.952V302.23l44.691-44.691L250.052,244.9Z" transform="translate(-180.732 -144.051)" fill="#fff"/></svg>