<svg xmlns="http://www.w3.org/2000/svg" width="74.276" height="76" viewBox="0 0 74.276 76"><g transform="translate(0.004)"><path d="M276,357.8l3.247,3.247v9.825H268.3v-3.1h7.681Z" transform="translate(-228.897 -318.187)" fill="#c72127"/><path d="M192.647,357.8l-3.247,3.247v9.825h10.97v-3.1h-7.7Z" transform="translate(-166.421 -318.187)" fill="#c72127"/><path d="M238.153,361.3l-3.5-3.5h-3.143v2.852h1.956l1.832,1.832v1.457h-8.7v2.852h11.553V361.3Z" transform="translate(-195.877 -318.187)" fill="#333"/><rect width="7.286" height="2.852" transform="translate(37.171 28.381) rotate(-45)" fill="#c72127"/><path d="M230.406,318.8l-3.206,3.206v4.04l5.225-5.225Z" transform="translate(-196.352 -287.305)" fill="#c72127"/><rect width="2.852" height="1.853" transform="translate(28.919 25.265) rotate(-45)" fill="#c72127"/><path d="M241.7,300.9l-2,2.019,8.951,8.951v-4.038Z" transform="translate(-206.25 -273.131)" fill="#c72127"/><rect width="2.977" height="2.852" transform="translate(38.252 27.301) rotate(-45)" fill="#c72127"/><path d="M277.2,300.8l-2.1,2.1,2.31,2.331v16.424h2.852V303.88Z" transform="translate(-234.281 -273.052)" fill="#c72127"/><path d="M259.2,204.139l4.831-4.831h0V187.654l-2.852-2.852v13.156l-4.08,4.08Z" transform="translate(-220.028 -181.199)" fill="#c72127"/><path d="M215.986,283l-6.786,6.786v17.777h2.852V291.139l6.038-6.038Z" transform="translate(-182.099 -258.957)" fill="#c72127"/><path d="M240.2,263.9l-2.1,2.1,4.58,4.58,2.1-2.1Z" transform="translate(-204.983 -243.833)" fill="#c72127"/><path d="M221.739,198.856l-.187-.167V185.7l-2.852,2.852v11.47h0l.937.937Z" transform="translate(-189.621 -181.911)" fill="#c72127"/><path d="M278.619,263.9l-2.019,2.019,3.164,3.164v-4.036Z" transform="translate(-235.469 -243.833)" fill="#c72127"/><path d="M257.683,180.406l-.083.083,2.019,2.019.853-.853v-11.3l-2.789-2.852Z" transform="translate(-220.424 -167.5)" fill="#c72127"/><path d="M243.954,183.049l-2.6-2.6V167.5l-2.852,2.852v11.282l1.415,1.415h-.021l2.019,2.019h0l1.332,1.312,2.019-2-1.332-1.332Z" transform="translate(-205.299 -167.5)" fill="#c72127"/><path d="M218,250.021v4.038l7.14-7.14-2.019-2.019Z" transform="translate(-189.067 -228.788)" fill="#c72127"/><path d="M83.346,492H81.934a2.455,2.455,0,0,0-.958.187,1.482,1.482,0,0,0-1,1.437,1.352,1.352,0,0,0,.25.833,2.179,2.179,0,0,0,1.853.729h.833l-2.706,3.6H79l2.123-2.831a2.164,2.164,0,0,1-1-.312A2.361,2.361,0,0,1,79,493.523a2.673,2.673,0,0,1,.646-1.6,3.447,3.447,0,0,1,2.519-.813h2.123v7.681h-.958V492Zm16.612,4.267H96.669l-1.083,2.5H94.545l3.788-8.867,3.768,8.867H101.06Zm-1.624-3.913-1.29,3.019H99.6Z" transform="translate(-79 -422.789)" fill="#333" fill-rule="evenodd"/><path d="M237.561,494.568H225.8V491.32a6.948,6.948,0,0,1,1.769-5.037A5.6,5.6,0,0,1,231.8,484.6a5.451,5.451,0,0,1,4.247,1.894,6.265,6.265,0,0,1,1.54,4.227v3.851Zm-10.533-1.353h9.242v-1.686a6.5,6.5,0,0,0-1.1-3.914,3.948,3.948,0,0,0-3.393-1.665,4.249,4.249,0,0,0-3.559,1.606,5.857,5.857,0,0,0-1.187,3.768Z" transform="translate(-195.243 -418.589)" fill="#c72127"/><path d="M344.3,495.958l2.1,2.81h-1.208l-2.706-3.6h.833a2.2,2.2,0,0,0,1.853-.728,1.352,1.352,0,0,0,.25-.833,1.473,1.473,0,0,0-1-1.437,2.533,2.533,0,0,0-.958-.187h-1.395v6.763h-.958v-7.68h2.1a3.468,3.468,0,0,1,2.54.812,2.812,2.812,0,0,1,.646,1.624,2.385,2.385,0,0,1-1.124,2.123,1.84,1.84,0,0,1-.978.333m-15.987.312H325l-1.062,2.5H322.9l3.788-8.867,3.768,8.867h-1.041Zm-1.644-3.914-1.268,3.019h2.56Z" transform="translate(-272.131 -422.789)" fill="#333" fill-rule="evenodd"/></g></svg>