<svg xmlns="http://www.w3.org/2000/svg" width="334.535" height="336.882" viewBox="0 0 334.535 336.882"><g transform="translate(-472.513 -356.122)"><path d="M761.59,584.54c-33.87,75.42-123.06,109.42-199.3,76A149.54,149.54,0,0,1,472.6,528.87,158.693,158.693,0,0,0,567.92,679.3c81.03,35.58,175.85-.5,211.82-80.67,26.44-58.92,13.7-125.16-27.07-170.28l-7.36,7.28A147.974,147.974,0,0,1,761.59,584.54Z" fill="#575756"/><path d="M722.42,569.29c-23.54,52.42-85.57,76-138.52,52.75a103.666,103.666,0,0,1-62.37-91.51,110.223,110.223,0,0,0,66.24,104.59c56.32,24.75,122.3-.42,147.27-56.09a109.507,109.507,0,0,0-17.05-116.36l-5.28,5.23A102.918,102.918,0,0,1,722.42,569.29Z" fill="#575756"/><path d="M682.74,553.79c-13.03,29.17-47.58,42.25-77.08,29.34a57.688,57.688,0,0,1-34.63-50.92,61.289,61.289,0,0,0,36.81,58.17c31.35,13.75,68-.17,81.96-31.17a60.828,60.828,0,0,0-7.06-61.66l-3.21,3.18A57.1,57.1,0,0,1,682.74,553.79Z" fill="#575756"/><path d="M619.71,523.03l38.5-38.08a54.371,54.371,0,0,0-14.54-6.17,55.378,55.378,0,0,0-47.66,9.33,4.562,4.562,0,0,1-6.3-.83,4.475,4.475,0,0,1,.84-6.25,64.526,64.526,0,0,1,55.39-10.84,63.32,63.32,0,0,1,18.74,8.33l24.04-23.75a94.689,94.689,0,0,0-35.05-17.67,96.387,96.387,0,0,0-82.54,16.25,7.844,7.844,0,0,1-10.93-1.5,7.588,7.588,0,0,1,1.51-10.75,111.813,111.813,0,0,1,138.1,2.67l19-18.75a136.408,136.408,0,0,0-172.57-6.41,11.077,11.077,0,0,1-15.47-2.09,10.767,10.767,0,0,1,2.02-15.33,158.949,158.949,0,0,1,201.73,8.25l50.1-49.5a13.212,13.212,0,0,1,18.58,0h0a12.947,12.947,0,0,1,0,18.42L638.37,541.45a13.329,13.329,0,0,1-18.66,0h0a12.947,12.947,0,0,1,0-18.42Z" fill="#f7c300" fill-rule="evenodd"/></g></svg>