<svg xmlns="http://www.w3.org/2000/svg" width="13.901" height="14.885" viewBox="0 0 13.901 14.885"><path d="M246.02,850.78c.83-.96-.07-2.22-.63-3.08-.31-.5-.77-1.2-1.42-1.29-.62-.07-1.17.62-1.58.99a4.715,4.715,0,0,0-1.58,3.36c.01.15.01.4-.01.17a8.458,8.458,0,0,0,1.49,4.28,17.969,17.969,0,0,0,3.09,3.66,9.139,9.139,0,0,0,4.05,2.31,4.733,4.733,0,0,0,4.05-.96c.42-.34,1.19-.84,1.22-1.43a1.936,1.936,0,0,0-.85-1.43c-.87-.78-2.15-2.07-3.33-1.13-.46.38-.95,1.08-1.57,1.18a2.294,2.294,0,0,1-1.65-.7,9.959,9.959,0,0,1-2.54-3.05,1.688,1.688,0,0,1-.1-1.68C245.01,851.48,245.62,851.25,246.02,850.78Z" transform="translate(-240.8 -846.405)" fill="#575756"/></svg>