<svg xmlns="http://www.w3.org/2000/svg" width="19.68" height="24.66" viewBox="0 0 19.68 24.66"><g transform="translate(-397.269 -840.17)"><path d="M411.18,860.43c-.08.08-.19.14-.23.23a9.158,9.158,0,0,0-.97,3.19c-.01.11,0,.22,0,.36.39,0,.78-.01,1.17,0a.586.586,0,0,1,.59.62h-2.59v-4.37h-.64v4.36h-2.59a.556.556,0,0,1,.58-.62c.38-.01.76,0,1.18,0-.01-.17-.02-.33-.04-.49a9.363,9.363,0,0,0-.98-3.13.221.221,0,0,0-.23-.14c-.56.01-1.13,0-1.69,0a1.08,1.08,0,0,1-1.17-1.16v-6.5c-.43,0-.84.03-1.24-.01a5.371,5.371,0,0,1-3.61-1.64,4.3,4.3,0,0,1-1.11-2.64c-.03-.32-.11-.63-.15-.95-.07-.52-.14-1.05-.19-1.57a.363.363,0,0,1,.11-.26,1.762,1.762,0,0,1,1.24-.34,4.233,4.233,0,0,0-.18,1.8c.32-.08.47-.45.8-.48l.05.05a3.541,3.541,0,0,1-.21.32c-.2.25-.4.51-.61.75a.677.677,0,0,0-.18.53,3.237,3.237,0,0,0,1.05,2.28,3.082,3.082,0,0,0,2.02.79,4.9,4.9,0,0,0,2.11-.4c.06-.02.1-.15.1-.22.01-1.07,0-2.13,0-3.2v-6.23a1.073,1.073,0,0,1,1.18-1.19c.21,0,.42.03.63.04.04.03.07.06.11.09.86.86,1.71,1.72,2.57,2.58a1.516,1.516,0,0,1-.21.03h-3.7v14.54h2.65c.5,0,1.01.01,1.51.01.14.15.27.3.41.44a2.513,2.513,0,0,0-.29.12.978.978,0,0,0-.61.89.962.962,0,0,0,.56.96.992.992,0,0,0,1.08-.09,1.3,1.3,0,0,0,.44-.71A18.238,18.238,0,0,0,411.18,860.43Z" fill="#575756"/><path d="M411.18,860.43l-1.33-1.33a1.069,1.069,0,0,0-.77-1.1c-.02-.01-.03-.04-.04-.06.15-.15.3-.29.44-.44a2.273,2.273,0,0,1,.26-.02h3.69a2.449,2.449,0,0,0,.27-.02V842.93h-3.89a1.515,1.515,0,0,1-.21-.03c.89-.89,1.77-1.78,2.66-2.67a.525.525,0,0,1,.17-.04c.26,0,.52-.01.79,0a1.061,1.061,0,0,1,1.05,1.1v9.67a.308.308,0,0,0,.23.35,3.789,3.789,0,0,1,2.22,2.42,3.859,3.859,0,0,1-.66,3.79,4.044,4.044,0,0,1-1.49,1.17.425.425,0,0,0-.3.5,1.175,1.175,0,0,1-.18.81,1.011,1.011,0,0,1-.82.47c-.66.02-1.33.01-1.99.01A.308.308,0,0,1,411.18,860.43Zm3.11-2.37a2.949,2.949,0,0,0,1.82-2.78,2.646,2.646,0,0,0-1.82-2.59Z" fill="#575756"/><path d="M412.27,840.24c-.89.89-1.77,1.78-2.66,2.67l-1.25.03c-.1,0-.21-.02-.31-.03-.86-.86-1.71-1.72-2.57-2.58a1.065,1.065,0,0,0-.11-.09.786.786,0,0,1,.2-.04h6.5A.509.509,0,0,1,412.27,840.24Zm-3.45,1.9h.91c.15,0,.28-.04.28-.21s-.13-.22-.28-.22H407.9c-.15,0-.26.06-.26.21s.11.22.26.21C408.2,842.14,408.51,842.14,408.82,842.14Z" fill="#575756"/><path d="M409.04,857.94h-.36c-.14-.15-.27-.3-.41-.44.4,0,.81,0,1.21.01C409.34,857.65,409.19,857.79,409.04,857.94Z" fill="#575756"/><path d="M405.93,851.36c.3-.11.58-.21.85-.3a7.37,7.37,0,0,0,.52.58,2.291,2.291,0,0,0,3.36-.31c.22-.28.22-.28.57-.15.08.03.16.06.25.09a2.248,2.248,0,0,0,.24.08,3.176,3.176,0,0,1-2.8,1.83A3.255,3.255,0,0,1,405.93,851.36Z" fill="#575756"/><path d="M407.07,847.74a.88.88,0,1,1-.88.87A.9.9,0,0,1,407.07,847.74Z" fill="#575756"/><path d="M411.45,848.63a.881.881,0,0,1-.89.87.88.88,0,0,1,.02-1.76A.875.875,0,0,1,411.45,848.63Z" fill="#575756"/></g></svg>