<svg xmlns="http://www.w3.org/2000/svg" width="25.216" height="21.276" viewBox="0 0 25.216 21.276"><g transform="translate(0 -40)"><path d="M22.064,40H3.152a3.152,3.152,0,0,0,0,6.3H3.94v11.82A3.152,3.152,0,0,0,9.85,59.65a3.152,3.152,0,0,0,5.516,0,3.152,3.152,0,0,0,5.91-1.526V46.3h.788a3.152,3.152,0,0,0,0-6.3Zm1.114,4.267a1.564,1.564,0,0,1-1.114.461h-.788v-.394a.788.788,0,1,0-1.576,0v13.79a1.576,1.576,0,0,1-3.134.243,1.214,1.214,0,0,0-2.4,0,1.576,1.576,0,0,1-3.115,0,1.214,1.214,0,0,0-2.4,0,1.576,1.576,0,0,1-3.134-.243V44.334a.788.788,0,1,0-1.576,0v.394H3.152a1.576,1.576,0,0,1,0-3.152H22.064a1.576,1.576,0,0,1,1.114,2.691Z" fill="#444"/><path d="M190.3,305.576h-5.516a.788.788,0,1,1,0-1.576H190.3a.788.788,0,1,1,0,1.576Z" transform="translate(-174.938 -250.998)" fill="#444"/><path d="M190.3,225.576h-5.516a.788.788,0,1,1,0-1.576H190.3a.788.788,0,1,1,0,1.576Z" transform="translate(-174.938 -174.938)" fill="#444"/></g></svg>