<svg xmlns="http://www.w3.org/2000/svg" width="19.036" height="19.036" viewBox="0 0 19.036 19.036"><g transform="translate(-5)"><path d="M19.779,7.8H15.02a1.019,1.019,0,0,1-.721-1.74L19.058,1.3a1.019,1.019,0,0,1,1.74.721V6.779A1.02,1.02,0,0,1,19.779,7.8Z" transform="translate(3.238 0.36)" fill="#333"/><path d="M6.02,14.8A1.019,1.019,0,0,1,5,13.779V9.02A1.02,1.02,0,0,1,6.02,8h4.759A1.019,1.019,0,0,1,11.5,9.74L6.74,14.5a1.015,1.015,0,0,1-.721.3Z" transform="translate(0 2.878)" fill="#333"/><path d="M6.521,9a1.4,1.4,0,0,1-.315-.037A1.361,1.361,0,0,1,5.2,7.328,9.513,9.513,0,0,1,21.142,2.747a1.36,1.36,0,1,1-1.915,1.932A6.793,6.793,0,0,0,7.843,7.957,1.361,1.361,0,0,1,6.521,9Z" transform="translate(0.058)" fill="#333"/><path d="M13.874,16.381a9.433,9.433,0,0,1-6.682-2.747A1.36,1.36,0,1,1,9.107,11.7,6.793,6.793,0,0,0,20.492,8.424a1.359,1.359,0,1,1,2.645.63A9.49,9.49,0,0,1,13.874,16.381Z" transform="translate(0.644 2.655)" fill="#333"/></g></svg>