<svg xmlns="http://www.w3.org/2000/svg" width="27.032" height="41.001" viewBox="0 0 27.032 41.001"><g transform="translate(-87.22)"><g transform="translate(87.22 0)"><path d="M113.888,10.026,101.537,1.982V.8a.8.8,0,0,0-1.6,0V1.982L87.584,10.026a.8.8,0,0,0-.364.671V40.2a.8.8,0,0,0,.8.8h25.43a.8.8,0,0,0,.8-.8V10.7a.8.8,0,0,0-.364-.671Zm-13.152.52a.8.8,0,0,0,.8-.8V9.212a1.607,1.607,0,1,1-1.6,0v.533A.8.8,0,0,0,100.736,10.545ZM112.65,39.4H88.822V11.131L99.935,3.893V7.5a3.208,3.208,0,1,0,1.6,0V3.893l11.113,7.238Z" transform="translate(-87.22 0)" fill="#222"/></g><g transform="translate(91.871 18.571)"><path d="M145.3,231.906h17.73V249.7H145.3Z" transform="translate(-145.296 -231.906)" fill="#f9d458"/><g transform="translate(5.903 2.812)"><path d="M219.806,278.768a.8.8,0,0,1-.738-1.111l4.258-10.145a.8.8,0,1,1,1.477.62l-4.258,10.145A.8.8,0,0,1,219.806,278.768Z" transform="translate(-219.005 -267.02)" fill="#222"/></g><g transform="translate(2.806 2.339)"><path d="M183.018,267.092A3,3,0,1,1,185.7,264.1,2.85,2.85,0,0,1,183.018,267.092Zm0-4.372A1.428,1.428,0,1,0,184.1,264.1,1.279,1.279,0,0,0,183.018,262.72Z" transform="translate(-180.336 -261.118)" fill="#222"/></g><g transform="translate(9.357 9.276)"><path d="M264.825,353.711a3,3,0,1,1,2.682-2.987A2.85,2.85,0,0,1,264.825,353.711Zm0-4.372a1.428,1.428,0,1,0,1.081,1.385A1.279,1.279,0,0,0,264.825,349.339Z" transform="translate(-262.143 -347.737)" fill="#222"/></g></g></g></svg>